<?xml version="1.0" standalone="no"?><!DOCTYPE svg PUBLIC "-//W3C//DTD SVG 1.1//EN" "http://www.w3.org/Graphics/SVG/1.1/DTD/svg11.dtd"><svg t="1743590135129" class="icon" viewBox="0 0 1024 1024" version="1.1" xmlns="http://www.w3.org/2000/svg" p-id="3488" xmlns:xlink="http://www.w3.org/1999/xlink" width="200" height="200"><path d="M778.149 512.834a1 1 0 0 0-0.136-1.408L361.617 168.247a1 1 0 0 0-1.636 0.772v686.358a1 1 0 0 0 1.636 0.772l416.396-343.18a1 1 0 0 0 0.136-0.135zM406.137 910.167c-30.26 24.94-75.007 20.626-99.946-9.634a71 71 0 0 1-16.21-45.156V169.02c0-39.212 31.788-71 71-71a71 71 0 0 1 45.156 16.21l416.396 343.18c30.26 24.938 34.573 69.685 9.634 99.945a71 71 0 0 1-9.634 9.634l-416.396 343.18z" fill="#2F54EB" p-id="3489"></path></svg>